<svg xmlns="http://www.w3.org/2000/svg" viewBox="0 0 512 512">
  <defs>
    <pattern id="grid" width="40" height="40" patternUnits="userSpaceOnUse">
      <path d="M 40 0 L 0 0 0 40" fill="none" stroke="white" stroke-width="1"/>
    </pattern>
    <linearGradient id="glassGradient" x1="0%" y1="0%" x2="100%" y2="100%">
      <stop offset="0%" stop-color="white" stop-opacity="0.3"/>
      <stop offset="50%" stop-color="white" stop-opacity="0.1"/>
      <stop offset="100%" stop-color="black" stop-opacity="0"/>
    </linearGradient>
    <mask id="gridMask">
      <rect width="512" height="512" fill="url(#glassGradient)"/>
    </mask>
  </defs>
  <rect width="512" height="512" fill="#050505"/>
  <rect width="512" height="512" fill="url(#grid)" mask="url(#gridMask)"/>
  <rect x="156" y="156" width="200" height="200" rx="36" fill="#000" stroke="white" stroke-width="16"/>
  <path d="M 120 80 Q 256 80 256 130" fill="none" stroke="white" stroke-width="16" stroke-linecap="round"/>
  <polygon points="256,156 236,126 276,126" fill="white"/>
  <path d="M 256 376 Q 256 432 372 432" fill="none" stroke="white" stroke-width="16" stroke-linecap="round"/>
  <polygon points="392,432 362,412 362,452" fill="white"/>
  <g transform="translate(256, 256)">
    <path d="M-40 -25 L-65 0 L-40 25" stroke="white" stroke-width="16" fill="none" stroke-linecap="round" stroke-linejoin="round"/>
    <path d="M-12 35 L12 -35" stroke="white" stroke-width="16" fill="none" stroke-linecap="round"/>
    <path d="M40 -25 L65 0 L40 25" stroke="white" stroke-width="16" fill="none" stroke-linecap="round" stroke-linejoin="round"/>
  </g>
</svg>
        